<svg width="30" height="30" viewBox="0 0 30 30" fill="none" xmlns="http://www.w3.org/2000/svg">
<path d="M15 0C13.4473 0 12.1875 1.00781 12.1875 2.25V3.29297C7.33887 4.29492 3.75 7.80469 3.75 12V21L0 24V25.5H11.7554C11.4258 25.957 11.25 26.4727 11.25 27C11.25 28.6582 12.9272 30 15 30C17.0728 30 18.75 28.6582 18.75 27C18.75 26.4727 18.5742 25.957 18.2446 25.5H30V24L26.25 21V12C26.25 7.80469 22.6611 4.29492 17.8125 3.29297V2.25C17.8125 1.00781 16.5527 0 15 0ZM15 6C19.1382 6 22.5 8.68945 22.5 12V22.2422L22.8223 22.5H7.17773L7.5 22.2422V12C7.5 8.68945 10.8618 6 15 6Z" fill="black"/>
</svg>
