<svg width="15" height="15" viewBox="0 0 15 15" fill="none" xmlns="http://www.w3.org/2000/svg">
<path d="M0.984775 5.47522C1.06362 5.74833 1.17304 6.01169 1.31143 6.25879L0.917191 6.76111C0.78846 6.92531 0.802942 7.1594 0.947764 7.30733L1.62682 7.99336C1.77325 8.14129 2.00497 8.15428 2.16749 8.02423L2.66149 7.6292C2.91574 7.77715 3.18607 7.89255 3.46767 7.97384L3.54169 8.61597C3.56583 8.82405 3.73961 8.98012 3.94558 8.98012H4.90624C5.11221 8.98012 5.28599 8.82404 5.31013 8.61597L5.38093 7.9966C5.68345 7.91694 5.97309 7.79827 6.24504 7.64383L6.72295 8.02586C6.88547 8.15591 7.11719 8.14128 7.26362 7.99497L7.94267 7.30894C8.08911 7.16101 8.10198 6.92691 7.97325 6.76272L7.60154 6.28641C7.75601 6.01653 7.8767 5.72881 7.95716 5.42806L8.53001 5.36141C8.73599 5.33702 8.89046 5.16145 8.89046 4.95337V3.98285C8.89046 3.77477 8.73598 3.5992 8.53001 3.57481L7.9652 3.50816C7.88795 3.21067 7.77211 2.92618 7.62408 2.65957L7.97165 2.21577C8.10039 2.05158 8.0859 1.81748 7.94108 1.66955L7.26364 0.985147C7.1172 0.837212 6.88549 0.824207 6.72297 0.954259L6.29655 1.29565C6.01977 1.13146 5.72368 1.00628 5.41313 0.921746L5.34876 0.364147C5.32463 0.156063 5.15084 0 4.94487 0H3.98422C3.77825 0 3.60446 0.156063 3.58033 0.364147L3.51596 0.921746C3.19735 1.00791 2.89322 1.13796 2.61002 1.30865L2.1675 0.954259C2.00498 0.824207 1.77327 0.838838 1.62684 0.985147L0.947781 1.67117C0.801349 1.81911 0.788476 2.0532 0.917207 2.21739L1.28731 2.69046C1.13927 2.96032 1.02663 3.24806 0.952608 3.54718L0.360446 3.61546C0.154477 3.63984 0 3.81541 0 4.0235V4.99401C0 5.2021 0.154477 5.37767 0.360446 5.40205L0.984775 5.47522ZM4.46533 2.84979C5.3407 2.84979 6.05355 3.56995 6.05355 4.45431C6.05355 5.33867 5.3407 6.05883 4.46533 6.05883C3.58998 6.05883 2.87712 5.33867 2.87712 4.45431C2.87712 3.56995 3.58996 2.84979 4.46533 2.84979Z" fill="white"/>
<path d="M13.9624 5.71418L13.4556 5.28176C13.2995 5.14846 13.0694 5.15496 12.9213 5.29639L12.6413 5.56137C12.4048 5.44595 12.1538 5.36467 11.8947 5.31752L11.8159 4.92737C11.7757 4.72579 11.5906 4.58598 11.3878 4.60224L10.7265 4.65913C10.5237 4.67702 10.3644 4.84446 10.358 5.05092L10.3451 5.44758C10.0909 5.54024 9.85111 5.66704 9.63227 5.82635L9.29758 5.60201C9.12698 5.48822 8.90011 5.52073 8.76818 5.67842L8.34015 6.19375C8.20818 6.35144 8.21462 6.58391 8.3546 6.73347L8.64748 7.04883C8.54609 7.27967 8.47367 7.52191 8.43185 7.77062L8.01348 7.85678C7.81394 7.89742 7.67556 8.08437 7.69165 8.28922L7.74797 8.95736C7.76567 9.1622 7.93141 9.32314 8.13577 9.32964L8.58794 9.34425C8.67004 9.56209 8.77783 9.76857 8.90816 9.962L8.65554 10.3473C8.5429 10.5196 8.57508 10.7488 8.73115 10.8821L9.23803 11.3145C9.39413 11.4479 9.62422 11.4413 9.77228 11.2999L10.1038 10.9862C10.321 11.0886 10.5495 11.165 10.7844 11.2105L10.8761 11.6689C10.9164 11.8705 11.1014 12.0103 11.3042 11.9941L11.9655 11.9372C12.1683 11.9193 12.3276 11.7519 12.334 11.5454L12.3485 11.0967C12.5899 11.0105 12.8184 10.8935 13.0292 10.7488L13.3944 10.9927C13.565 11.1065 13.7919 11.074 13.9238 10.9163L14.3519 10.4042C14.4838 10.2465 14.4774 10.014 14.3374 9.86446L14.0429 9.5491C14.1507 9.31826 14.2296 9.07441 14.2746 8.82404L14.6769 8.74114C14.8764 8.70049 15.0148 8.51354 14.9987 8.3087L14.9424 7.64055C14.9247 7.43572 14.759 7.27478 14.5546 7.26828L14.1507 7.25527C14.067 7.01793 13.9544 6.7936 13.8144 6.5855L14.0348 6.25062C14.1507 6.07833 14.1185 5.84749 13.9624 5.71418ZM11.4699 9.57672C10.7555 9.63851 10.1246 9.10041 10.0651 8.37863C10.004 7.65684 10.5366 7.01957 11.251 6.95942C11.9655 6.89764 12.5963 7.43575 12.6558 8.15753C12.717 8.87933 12.1843 9.51659 11.4699 9.57672Z" fill="white"/>
<path d="M3.29871 11.3747C3.09596 11.3959 2.93987 11.5682 2.93826 11.7746L2.93344 12.1859C2.93022 12.3924 3.08148 12.568 3.28423 12.594L3.58353 12.633C3.63341 12.8167 3.70421 12.9923 3.79593 13.1581L3.60284 13.3987C3.4741 13.5596 3.48376 13.7905 3.62697 13.9384L3.91179 14.2326C4.055 14.3806 4.2835 14.3968 4.44602 14.27L4.68577 14.0831C4.85473 14.1839 5.03336 14.2635 5.22 14.3188L5.25218 14.6309C5.2731 14.8358 5.44367 14.9934 5.64803 14.9951L6.05516 14.9999C6.2595 15.0032 6.4333 14.8504 6.45905 14.6456L6.49606 14.3497C6.69883 14.2993 6.89192 14.2229 7.07535 14.1221L7.30063 14.3058C7.45993 14.4358 7.68845 14.4261 7.83488 14.2814L8.12613 13.9937C8.27256 13.849 8.28865 13.6181 8.16316 13.4539L7.99095 13.228C8.09715 13.0491 8.17923 12.8589 8.23555 12.659L8.50267 12.6314C8.70542 12.6102 8.86149 12.4379 8.86311 12.2314L8.86792 11.8201C8.87116 11.6137 8.7199 11.4381 8.51715 11.4121L8.25645 11.378C8.20657 11.1796 8.13257 10.9878 8.03602 10.809L8.19854 10.6074C8.32727 10.4465 8.31762 10.2156 8.1744 10.0677L7.8896 9.77343C7.74639 9.62548 7.51786 9.60923 7.35535 9.73604L7.16063 9.88723C6.97721 9.77506 6.78088 9.6889 6.57492 9.63038L6.54916 9.37515C6.52824 9.1703 6.35769 9.01263 6.15331 9.011L5.7462 9.00612C5.54184 9.00287 5.36806 9.15568 5.34229 9.36052L5.31011 9.61414C5.09772 9.66939 4.89336 9.75394 4.70348 9.86447L4.50234 9.69865C4.34304 9.5686 4.11452 9.57837 3.96809 9.72304L3.67523 10.0124C3.5288 10.1571 3.51271 10.3879 3.63822 10.5521L3.8104 10.7765C3.71063 10.9553 3.63178 11.1455 3.58029 11.3455L3.29871 11.3747ZM5.92643 10.9098C6.51054 10.9163 6.97878 11.4024 6.97236 11.9925C6.96593 12.5826 6.48478 13.0556 5.90066 13.0491C5.31655 13.0426 4.84831 12.5566 4.85473 11.9664C4.86118 11.3763 5.34231 10.9033 5.92643 10.9098Z" fill="white"/>
</svg>
