<svg width="22" height="22" viewBox="0 0 22 22" fill="none" xmlns="http://www.w3.org/2000/svg">
<path d="M2.99141 20.2543C2.99141 20.2543 2.97187 20.7461 3.45226 20.7461C4.04989 20.7461 8.99785 20.7396 8.99785 20.7396L9.00599 16.1955C9.00599 16.1955 8.92783 15.4464 9.65492 15.4464H11.9559C12.8157 15.4464 12.7628 16.1955 12.7628 16.1955L12.753 20.7249C12.753 20.7249 17.4445 20.7249 18.1813 20.7249C18.7912 20.7249 18.7635 20.1127 18.7635 20.1127V11.7352L11.1132 4.93005L2.99141 11.7352V20.2543Z" fill="white"/>
<path d="M0 11.1018C0 11.1018 0.689637 12.3728 2.19349 11.1018L11.1808 3.49867L19.607 11.0546C21.3478 12.3101 22 11.0546 22 11.0546L11.1808 1.25389L0 11.1018Z" fill="white"/>
<path d="M19.4027 3.48076H17.2352L17.2442 6.10903L19.4027 7.9402V3.48076Z" fill="white"/>
</svg>
