<svg width="30" height="30" viewBox="0 0 30 30" fill="none" xmlns="http://www.w3.org/2000/svg">
<path d="M4.07919 27.6195C4.07919 27.6195 4.05254 28.2902 4.70761 28.2902C5.52257 28.2902 12.2698 28.2813 12.2698 28.2813L12.2809 22.0848C12.2809 22.0848 12.1743 21.0633 13.1658 21.0633H16.3035C17.4759 21.0633 17.4038 22.0848 17.4038 22.0848L17.3904 28.2613C17.3904 28.2613 23.7879 28.2613 24.7927 28.2613C25.6243 28.2613 25.5866 27.4264 25.5866 27.4264V16.0026L15.1543 6.7228L4.07919 16.0026V27.6195Z" fill="#030104"/>
<path d="M0 15.1388C0 15.1388 0.940414 16.8719 2.99112 15.1388L15.2465 4.77091L26.7369 15.0744C29.1107 16.7865 30 15.0744 30 15.0744L15.2465 1.70984L0 15.1388Z" fill="#030104"/>
<path d="M26.4582 4.74648H23.5026L23.5148 8.3305L26.4582 10.8275V4.74648Z" fill="#030104"/>
</svg>
